<svg width="150" height="150" viewBox="0 0 150 150" fill="none" xmlns="http://www.w3.org/2000/svg">
<path d="M99.3927 0H119.027V20.908H99.7287C89.77 20.908 86.1085 22.2347 83.0306 25.0295C79.9528 27.8243 76.9457 34.2807 81.7394 40.8432C84.4457 44.5578 93.8384 50.0059 106.309 57.2052C114.18 61.7512 129.074 72.2052 129.269 89.77C129.499 111.509 105.548 125.572 105.548 125.572L101.073 120.708C104.062 118.037 108.255 113.473 108.679 105.761C109.121 96.474 103.656 86.3738 93.1132 79.829C81.9339 73.0719 65.8549 63.237 65.8549 63.237C65.8549 63.237 44.8762 51.2087 53.6674 26.1969C58.4434 12.842 68.7028 6.27948 77.2464 3.07783C80.7488 1.69811 84.428 0.79599 88.178 0.353774C88.178 0.353774 90.3361 0 99.3927 0Z" fill="#00ADEE"/>
<path d="M41.3031 128.614C52.1285 128.614 51.4564 128.349 55.4717 128.243C67.3054 127.907 72.0991 123.626 72.3821 115.914C72.7005 108.361 62.8302 103.054 56.9222 99.6934C51.0141 96.3325 46.9988 93.803 46.9988 93.803C42.7712 91.2559 23.9682 80.6073 23.9682 62.0696C23.9682 38.013 48.1663 25.8608 48.1663 25.8608L52.3054 30.2653C47.2288 34.8821 42.9127 41.0908 45.1238 52.8007C47.388 64.2983 61.8219 72.329 61.8219 72.329C61.8219 72.329 62.1757 72.9658 78.8561 82.5354C95.9611 92.0696 102.488 102.63 102.205 113.561C101.887 124.723 93.7146 134.876 93.7146 134.876C86.1262 143.809 75.3538 147.47 67.1462 149.027C67.1462 149.027 62.5295 150 55.1533 150H22.5V128.614H41.3031Z" fill="#034EA1"/>
</svg>
