<svg width="71" height="70" viewBox="0 0 71 70" fill="none" xmlns="http://www.w3.org/2000/svg">
<path d="M35.4792 51.017C29.8887 51.017 24.5902 49.6195 19.7148 46.8539C15.9362 44.7111 11.8476 40.8521 8.50396 36.2674L8.21191 35.8702L8.5278 35.4829C11.4423 31.8837 16.0017 27.0293 21.1631 24.3373C25.7285 21.9641 30.5443 20.7627 35.4792 20.7627C40.9684 20.7627 46.255 22.1749 51.1899 24.9552C55.0342 27.1225 59.1585 30.9717 62.5081 35.5074L62.7882 35.8849L62.5081 36.2674C59.1883 40.8227 55.0699 44.6866 51.2137 46.8588C46.3146 49.6195 41.0161 51.017 35.4792 51.017ZM10.3277 35.9095C13.4866 40.146 17.2593 43.6765 20.728 45.6428C25.2994 48.2318 30.2582 49.5459 35.4792 49.5459C40.7002 49.5459 45.6053 48.2318 50.2065 45.6477C53.7527 43.6471 57.5553 40.1117 60.6962 35.8947C56.5594 31.7373 54.1674 30.7669 50.6272 28.7712C46.0022 26.1626 40.6048 25.1352 35.4792 25.1352C30.884 25.1352 26.1293 25.9567 21.856 28.178C17.1416 30.6346 13.5509 32.9237 10.3277 35.9144V35.9095Z" fill="white"/>
<path d="M35.7017 45.4881C30.0305 45.4881 25.4152 40.8728 25.4152 35.2017C25.4152 29.5305 30.0305 24.9152 35.7017 24.9152C41.3728 24.9152 45.9881 29.5305 45.9881 35.2017C45.9881 40.8728 41.3728 45.4881 35.7017 45.4881Z" fill="white"/>
<path d="M67.7507 21.3373C65.9114 17.08 63.4166 13.3764 60.26 10.2327C57.1097 7.08273 53.3994 4.59455 49.1353 2.75545C44.8713 0.916363 40.3209 0 35.4841 0C30.6473 0 26.0969 0.916363 21.8392 2.75545C17.5816 4.59455 13.8776 7.08909 10.7337 10.2455C7.58337 13.3955 5.09496 17.1055 3.25571 21.3691C1.41645 25.6264 0.5 30.1764 0.5 35.0191C0.5 39.8618 1.42281 44.4055 3.25571 48.6627C5.09496 52.92 7.58974 56.6236 10.74 59.7673C13.8903 62.9173 17.6006 65.4054 21.8647 67.2445C26.1287 69.0836 30.6791 70 35.5159 70C40.3527 70 44.9031 69.0836 49.1608 67.2445C53.4184 65.4054 57.1224 62.9109 60.2663 59.7545C63.4166 56.6045 65.905 52.8945 67.7443 48.6309C69.5836 44.3673 70.5 39.8173 70.5 34.9809C70.5 30.1445 69.5836 25.5945 67.7443 21.3373H67.7507ZM65.6123 47.7082C63.9003 51.6791 61.5519 55.1791 58.6244 58.1064C55.6968 61.0336 52.2092 63.3882 48.2443 65.1C44.2985 66.8055 40.0218 67.6645 35.5286 67.6645C31.0355 67.6645 26.746 66.7991 22.8002 65.1C18.8289 63.3882 15.335 61.04 12.4011 58.1127C9.47354 55.1918 7.11878 51.6982 5.40681 47.7336C3.7012 43.7882 2.84203 39.5118 2.84203 35.0191C2.84203 30.5264 3.70756 26.2373 5.40681 22.2918C7.11878 18.3209 9.46718 14.8273 12.3947 11.8936C15.3159 8.96636 18.8098 6.61182 22.7748 4.9C26.7142 3.19455 30.9973 2.33545 35.4905 2.33545C39.9836 2.33545 44.2731 3.20091 48.2189 4.9C52.1902 6.61182 55.6841 8.96 58.618 11.8873C61.5456 14.8082 63.9003 18.3018 65.6123 22.2664C67.3179 26.2055 68.1771 30.4882 68.1771 34.9809C68.1771 39.4736 67.3115 43.7627 65.6123 47.7082Z" fill="white"/>
</svg>
