<svg width="70" height="70" viewBox="0 0 70 70" fill="none" xmlns="http://www.w3.org/2000/svg">
<path d="M28.3451 33.4695L20.9298 53.2712C20.2951 54.9678 21.5468 56.7771 23.362 56.7771H46.2307C48.04 56.7771 49.2976 54.9678 48.6629 53.2712L41.2476 33.4695C40.6366 31.8381 40.3163 30.1118 40.3044 28.3737L40.2095 15.4712H40.3756C40.8798 15.4712 41.2891 15.0618 41.2891 14.5576C41.2891 14.0534 40.8798 13.644 40.3756 13.644H29.2171C28.7129 13.644 28.3035 14.0534 28.3035 14.5576C28.3035 15.0618 28.7129 15.4712 29.2171 15.4712H29.3832L29.2883 28.3737C29.2764 30.1178 28.9561 31.8381 28.3451 33.4695Z" fill="white"/>
<path d="M13.0509 18.9831L57.5424 50.4237" stroke="white" stroke-width="3" stroke-miterlimit="10"/>
<path d="M57.5424 18.9831L13.0509 50.4237" stroke="white" stroke-width="3" stroke-miterlimit="10"/>
<path d="M67.2507 21.3373C65.4114 17.08 62.9166 13.3764 59.76 10.2327C56.6097 7.08273 52.8994 4.59455 48.6353 2.75545C44.3713 0.916363 39.8209 0 34.9841 0C30.1473 0 25.5969 0.916363 21.3392 2.75545C17.0816 4.59455 13.3776 7.08909 10.2337 10.2455C7.08337 13.3955 4.59496 17.1055 2.75571 21.3691C0.916447 25.6264 0 30.1764 0 35.0191C0 39.8618 0.922811 44.4055 2.75571 48.6627C4.59496 52.92 7.08974 56.6236 10.24 59.7673C13.3903 62.9173 17.1006 65.4054 21.3647 67.2445C25.6287 69.0836 30.1791 70 35.0159 70C39.8527 70 44.4031 69.0836 48.6608 67.2445C52.9184 65.4054 56.6224 62.9109 59.7663 59.7545C62.9166 56.6045 65.405 52.8945 67.2443 48.6309C69.0836 44.3673 70 39.8173 70 34.9809C70 30.1445 69.0836 25.5945 67.2443 21.3373H67.2507ZM65.1123 47.7082C63.4003 51.6791 61.0519 55.1791 58.1244 58.1064C55.1968 61.0336 51.7092 63.3882 47.7443 65.1C43.7985 66.8055 39.5218 67.6645 35.0286 67.6645C30.5355 67.6645 26.246 66.7991 22.3002 65.1C18.3289 63.3882 14.835 61.04 11.9011 58.1127C8.97354 55.1918 6.61878 51.6982 4.90681 47.7336C3.2012 43.7882 2.34203 39.5118 2.34203 35.0191C2.34203 30.5264 3.20756 26.2373 4.90681 22.2918C6.61878 18.3209 8.96718 14.8273 11.8947 11.8936C14.8159 8.96636 18.3098 6.61182 22.2748 4.9C26.2142 3.19455 30.4973 2.33545 34.9905 2.33545C39.4836 2.33545 43.7731 3.20091 47.7189 4.9C51.6902 6.61182 55.1841 8.96 58.118 11.8873C61.0456 14.8082 63.4003 18.3018 65.1123 22.2664C66.8179 26.2055 67.6771 30.4882 67.6771 34.9809C67.6771 39.4736 66.8115 43.7627 65.1123 47.7082Z" fill="white"/>
</svg>
