<svg width="60" height="60" viewBox="0 0 60 60" fill="none" xmlns="http://www.w3.org/2000/svg">
<path d="M57.6434 18.2891C56.0669 14.64 53.9285 11.4655 51.2228 8.77091C48.5226 6.07091 45.3423 3.93818 41.6874 2.36182C38.0325 0.785454 34.1322 0 29.9864 0C25.8405 0 21.9402 0.785454 18.2908 2.36182C14.6413 3.93818 11.4665 6.07636 8.77171 8.78182C6.07146 11.4818 3.93854 14.6618 2.36203 18.3164C0.785526 21.9655 0 25.8655 0 30.0164C0 34.1673 0.790981 38.0618 2.36203 41.7109C3.93854 45.36 6.07692 48.5345 8.77716 51.2291C11.4774 53.9291 14.6577 56.0618 18.3126 57.6382C21.9675 59.2145 25.8678 60 30.0136 60C34.1595 60 38.0598 59.2145 41.7092 57.6382C45.3587 56.0618 48.5335 53.9236 51.2283 51.2182C53.9285 48.5182 56.0615 45.3382 57.638 41.6836C59.2145 38.0291 60 34.1291 60 29.9836C60 25.8382 59.2145 21.9382 57.638 18.2891H57.6434ZM55.8105 40.8927C54.3431 44.2964 52.3302 47.2964 49.8209 49.8055C47.3116 52.3145 44.3222 54.3327 40.9237 55.8C37.5416 57.2618 33.8758 57.9982 30.0245 57.9982C26.1733 57.9982 22.4966 57.2564 19.1145 55.8C15.7105 54.3327 12.7157 52.32 10.2009 49.8109C7.69161 47.3073 5.67324 44.3127 4.20584 40.9145C2.74389 37.5327 2.00746 33.8673 2.00746 30.0164C2.00746 26.1655 2.74934 22.4891 4.20584 19.1073C5.67324 15.7036 7.68615 12.7091 10.1955 10.1945C12.6993 7.68546 15.6942 5.66727 19.0926 4.2C22.4693 2.73818 26.1406 2.00182 29.9918 2.00182C33.8431 2.00182 37.5198 2.74364 40.9019 4.2C44.3058 5.66727 47.3007 7.68 49.8154 10.1891C52.3248 12.6927 54.3431 15.6873 55.8105 19.0855C57.2725 22.4618 58.0089 26.1327 58.0089 29.9836C58.0089 33.8345 57.267 37.5109 55.8105 40.8927Z" fill="#00AEEF"/>
<path d="M24.0731 28.4018L17.2543 46.6091C16.6706 48.1691 17.8216 49.8327 19.4908 49.8327H40.52C42.1838 49.8327 43.3403 48.1691 42.7566 46.6091L35.9378 28.4018C35.3759 26.9018 35.0813 25.3145 35.0704 23.7164L34.9831 11.8527H35.1359C35.5996 11.8527 35.976 11.4764 35.976 11.0127C35.976 10.5491 35.5996 10.1727 35.1359 10.1727H24.875C24.4113 10.1727 24.0349 10.5491 24.0349 11.0127C24.0349 11.4764 24.4113 11.8527 24.875 11.8527H25.0277L24.9404 23.7164C24.9295 25.32 24.6349 26.9018 24.0731 28.4018Z" stroke="#00AEEF" stroke-width="3" stroke-miterlimit="10"/>
<path d="M9.57861 20.3727L50.426 39.6273" stroke="white" stroke-width="3" stroke-miterlimit="10"/>
<path d="M50.426 20.3727L9.57861 39.6273" stroke="white" stroke-width="3" stroke-miterlimit="10"/>
</svg>
