<svg width="167" height="66" viewBox="0 0 167 66" fill="none" xmlns="http://www.w3.org/2000/svg">
<path d="M33.8328 0H42.4719V9.19953H33.9807C29.5988 9.19953 27.9877 9.78325 26.6335 11.013C25.2793 12.2427 23.9561 15.0835 26.0653 17.971C27.2561 19.6054 31.3889 22.0026 36.876 25.1703C40.3394 27.1705 46.8927 31.7703 46.9783 39.4988C47.0795 49.0641 36.5413 55.2516 36.5413 55.2516L34.5722 53.1113C35.8875 51.9361 37.7321 49.9281 37.9189 46.5347C38.1135 42.4486 35.7085 38.0045 31.0698 35.1248C26.151 32.1516 19.0762 27.8243 19.0762 27.8243C19.0762 27.8243 9.84553 22.5318 13.7137 11.5266C15.8151 5.65047 20.3293 2.76297 24.0885 1.35425C25.6295 0.74717 27.2484 0.350236 28.8984 0.15566C28.8984 0.15566 29.8479 0 33.8328 0Z" fill="white"/>
<path d="M8.27335 56.5903C13.0366 56.5903 12.7408 56.4736 14.5075 56.4269C19.7144 56.279 21.8236 54.3955 21.9481 51.0021C22.0882 47.6788 17.7453 45.3438 15.1458 43.8651C12.5462 42.3863 10.7795 41.2733 10.7795 41.2733C8.91934 40.1526 0.645991 35.4672 0.645991 27.3106C0.645991 16.7257 11.2932 11.3788 11.2932 11.3788L13.1144 13.3167C10.8807 15.3481 8.9816 18.0799 9.95448 23.2323C10.9507 28.2913 17.3017 31.8247 17.3017 31.8247C17.3017 31.8247 17.4573 32.1049 24.7967 36.3155C32.3229 40.5106 35.1948 45.1571 35.0703 49.967C34.9302 54.878 31.3344 59.3455 31.3344 59.3455C27.9955 63.2759 23.2557 64.887 19.6443 65.5719C19.6443 65.5719 17.613 66 14.3675 66H0V56.5903H8.27335Z" fill="white"/>
<path d="M70.3818 19.8233C70.1406 19.3719 69.8215 18.9672 69.4479 18.617C68.2026 17.3483 66.5214 16.6012 64.7391 16.5233H50.2549L50.2316 23.7226H60.6608C62.1785 23.7226 63.2915 23.9873 63.2915 26.3533V28.9684H55.8821C55.8821 28.9684 53.6016 28.8594 51.8193 30.1281C50.0448 31.3967 49.6167 33.9262 49.6167 33.9262C49.4455 34.7667 49.3677 35.6307 49.3677 36.4868V48.3014C49.3677 52.1151 51.4847 53.5861 51.4847 53.5861C51.4847 53.5861 52.6988 54.9014 55.8665 54.9248H64.6691C67.899 54.9248 69.1599 53.5861 69.1599 53.5861C69.1599 53.5861 71.2847 52.1151 71.2847 48.3014V23.2712C71.2613 22.0649 70.9578 20.8896 70.3896 19.8311M63.2604 45.7408C63.2604 46.6281 62.8946 47.492 61.2835 47.492H59.2288C58.0769 47.492 57.3297 46.846 57.3297 45.7408V38.2302C57.3297 37.8333 57.6799 36.3545 59.3922 36.3545H63.2681C63.2681 36.3545 63.2604 44.8613 63.2604 45.7486" fill="white"/>
<path d="M74.6625 54.917H82.897V23.8939H86.9753C88.4385 23.8939 89.3802 24.6021 89.3802 26.1665V54.917H97.6925V25.2637C97.6925 22.3373 96.8052 20.9052 96.3849 20.0802C95.809 19.2474 93.4118 16.5 89.9017 16.5H74.647V35.3505L74.6548 54.917H74.647" fill="white"/>
<path d="M143.737 54.9403H151.948V23.8939H156.05C157.482 23.8939 158.462 24.6099 158.462 26.1743V54.9248H166.782V25.2715C166.782 22.345 165.887 20.913 165.475 20.088C165.07 19.263 162.595 16.5156 158.992 16.5156H143.729V54.9403" fill="white"/>
<path d="M107.406 54.9792H116.753V47.6943H111.531C109.118 47.6943 109.25 45.7408 109.25 45.7408V23.8783H116.753V16.7179H109.25V7.40164L101.031 19.8311V47.4998C101.031 50.8698 102.666 52.5587 102.666 52.5587C102.666 52.5587 104.573 54.9715 107.413 54.9715" fill="white"/>
<path d="M139.339 18.9905C137.931 17.1148 136.141 16.6946 133.985 16.6245H125.213C123.12 16.6946 121.244 17.1071 119.866 18.9905C118.489 20.8818 118.714 23.7071 118.714 23.7071V48.2936C118.722 50.146 119.524 51.9127 120.909 53.1424C120.909 53.1424 122.575 54.9325 125.221 54.9325H139.697V47.6865H129.151C128.467 47.7566 127.782 47.5464 127.252 47.1106C127.252 47.1106 126.7 46.628 126.7 45.3905V42.2851H133.985C133.985 42.2851 137.168 42.2851 138.717 40.5962C140.266 38.9073 140.522 36.7592 140.522 36.3389V23.7148C140.522 23.7148 140.709 20.8507 139.339 18.9983M132.49 32.8988C132.49 35.2571 130.015 35.0703 130.015 35.0703H126.7V26.0731C126.7 23.7071 129.151 23.8783 129.151 23.8783H130.015C130.015 23.8783 132.49 23.6915 132.49 26.0731V32.8988Z" fill="white"/>
</svg>
