<svg width="152" height="60" viewBox="0 0 152 60" fill="none" xmlns="http://www.w3.org/2000/svg">
<path d="M30.757 0H38.6108V8.36321H30.8915C26.908 8.36321 25.4434 8.89387 24.2122 10.0118C22.9811 11.1297 21.7783 13.7123 23.6957 16.3373C24.7783 17.8231 28.5353 20.0024 33.5236 22.8821C36.6721 24.7005 42.6297 28.8821 42.7075 35.908C42.7995 44.6038 33.2193 50.2288 33.2193 50.2288L31.4292 48.283C32.625 47.2146 34.3019 45.3891 34.4717 42.3042C34.6486 38.5896 32.4622 34.5495 28.2452 31.9316C23.7735 29.2288 17.3419 25.2948 17.3419 25.2948C17.3419 25.2948 8.95044 20.4835 12.4669 10.4788C14.3773 5.13679 18.4811 2.51179 21.8986 1.23113C23.2995 0.679245 24.7712 0.318396 26.2712 0.141509C26.2712 0.141509 27.1344 0 30.757 0Z" fill="#00ADEE"/>
<path d="M7.52123 51.4457C11.8514 51.4457 11.5825 51.3396 13.1887 51.2972C17.9222 51.1627 19.8396 49.4505 19.9528 46.3656C20.0802 43.3443 16.1321 41.2217 13.7689 39.8773C11.4057 38.533 9.79953 37.5212 9.79953 37.5212C8.10849 36.5023 0.587264 32.2429 0.587264 24.8278C0.587264 15.2052 10.2665 10.3443 10.2665 10.3443L11.9222 12.1061C9.89151 13.9528 8.16509 16.4363 9.04953 21.1203C9.95519 25.7193 15.7288 28.9316 15.7288 28.9316C15.7288 28.9316 15.8703 29.1863 22.5425 33.0141C29.3844 36.8278 31.9953 41.0519 31.8821 45.4245C31.7547 49.8891 28.4858 53.9505 28.4858 53.9505C25.4505 57.5236 21.1415 58.9882 17.8585 59.6108C17.8585 59.6108 16.0118 60 13.0613 60H0V51.4457H7.52123Z" fill="#034EA1"/>
<path d="M63.9834 18.0212C63.7641 17.6108 63.474 17.2429 63.1344 16.9245C62.0023 15.7712 60.474 15.092 58.8537 15.0212H45.6862L45.665 21.566H55.1461C56.5259 21.566 57.5377 21.8066 57.5377 23.9575V26.3349H50.8018C50.8018 26.3349 48.7287 26.2358 47.1084 27.3891C45.4952 28.5424 45.1061 30.842 45.1061 30.842C44.9504 31.6061 44.8796 32.3915 44.8796 33.1698V43.9104C44.8796 47.3773 46.8042 48.7146 46.8042 48.7146C46.8042 48.7146 47.9079 49.9104 50.7877 49.9316H58.79C61.7263 49.9316 62.8726 48.7146 62.8726 48.7146C62.8726 48.7146 64.8042 47.3773 64.8042 43.9104V21.1556C64.7829 20.0589 64.507 18.9905 63.9905 18.0283M57.5094 41.5825C57.5094 42.3891 57.1768 43.1745 55.7122 43.1745H53.8443C52.7971 43.1745 52.1178 42.5872 52.1178 41.5825V34.7547C52.1178 34.3939 52.4362 33.0495 53.9928 33.0495H57.5164C57.5164 33.0495 57.5094 40.783 57.5094 41.5896" fill="#034EA1"/>
<path d="M67.875 49.9245H75.3608V21.7217H79.0684C80.3986 21.7217 81.2547 22.3655 81.2547 23.7877V49.9245H88.8113V22.967C88.8113 20.3066 88.0047 19.0047 87.6226 18.2547C87.099 17.4976 84.9198 15 81.7288 15H67.8608V32.1368L67.8679 49.9245H67.8608" fill="#034EA1"/>
<path d="M130.67 49.9457H138.134V21.7217H141.863C143.165 21.7217 144.056 22.3726 144.056 23.7948V49.9316H151.62V22.9741C151.62 20.3137 150.806 19.0118 150.431 18.2618C150.064 17.5118 147.814 15.0141 144.538 15.0141H130.663V49.9457" fill="#034EA1"/>
<path d="M97.6415 49.9811H106.139V43.3585H101.391C99.1981 43.3585 99.3184 41.5825 99.3184 41.5825V21.7075H106.139V15.1981H99.3184V6.72876L91.8467 18.0283V43.1816C91.8467 46.2453 93.3325 47.7806 93.3325 47.7806C93.3325 47.7806 95.066 49.974 97.6486 49.974" fill="#034EA1"/>
<path d="M126.672 17.2641C125.392 15.559 123.764 15.1769 121.804 15.1132H113.83C111.927 15.1769 110.222 15.5519 108.969 17.2641C107.717 18.9835 107.922 21.5519 107.922 21.5519V43.9033C107.929 45.5873 108.658 47.1934 109.917 48.3113C109.917 48.3113 111.432 49.9387 113.837 49.9387H126.998V43.3514H117.41C116.788 43.4151 116.165 43.2241 115.684 42.8278C115.684 42.8278 115.182 42.3891 115.182 41.2641V38.441H121.804C121.804 38.441 124.698 38.441 126.106 36.9057C127.514 35.3703 127.748 33.4174 127.748 33.0354V21.559C127.748 21.559 127.917 18.9552 126.672 17.2712M120.446 29.908C120.446 32.0519 118.196 31.8821 118.196 31.8821H115.182V23.7028C115.182 21.5519 117.41 21.7075 117.41 21.7075H118.196C118.196 21.7075 120.446 21.5377 120.446 23.7028V29.908Z" fill="#034EA1"/>
</svg>
